<?xml version="1.0" encoding="iso-8859-1"?>
<!-- Generator: Adobe Illustrator 19.1.0, SVG Export Plug-In . SVG Version: 6.00 Build 0)  -->
<svg version="1.1" id="Capa_1" xmlns="http://www.w3.org/2000/svg" xmlns:xlink="http://www.w3.org/1999/xlink" x="0px" y="0px"
	 viewBox="0 0 483.8 483.8" style="enable-background:new 0 0 483.8 483.8;" xml:space="preserve">
<g>
	<g>
		<g>
			<g>
				<path d="M429.8,253.8h-14.2l0,0c-9.4-28.8-27.7-54.2-52.2-74c0-0.9-0.2-1.9-0.4-2.8c-5.1-18,1.2-34.5,8.6-46.3
					c5.2-8.2-1.5-18.9-11.2-17.7c-21.7,2.7-36.6,10.7-46.9,19.6c-7.1,6.2-12.1,14.4-14.3,23.5c-15.5,64.3-73.4,112.2-142.6,112.2
					c-33.5,0-64.4-11.3-89.1-30.2c-8.5,18.6-13.2,38.8-13.2,60.1c0,11.5,1.4,22.7,4,33.5l0,0c0,0,0,0.2,0.1,0.5
					c2.7,11.2,6.8,22,12.1,32.2c6.9,15,17.1,32.5,30.9,46.8c20.1,20.7,23.5,46.3,24,57.3v4.8c0,0.2,0,0.4,0,0.6c0,0.1,0,0.1,0,0.1
					l0,0c0.4,5.4,4.9,9.8,10.4,9.8h63.8c5.8,0,10.5-4.7,10.5-10.5v-15.8c9.2,1.2,18.7,1.9,28.3,1.9c7.5,0,14.9-0.4,22.2-1.2v15
					c0,5.8,4.7,10.5,10.5,10.5h63.8c5.8,0,10.5-4.7,10.5-10.5v-15.8c0.1-5.2,1.9-26.1,21.6-43.9c0.7-0.6,1.4-1.2,2.1-1.9
					c0.2-0.2,0.4-0.3,0.6-0.5l0,0c21.9-19.5,38.2-43.9,46.6-71.1h13.4c10.7,0,19.3-8.7,19.3-19.3V273
					C449.1,262.5,440.5,253.8,429.8,253.8z M350.1,257.2c-8.7,0-15.8-7.1-15.8-15.8s7.1-15.8,15.8-15.8c8.7,0,15.8,7.1,15.8,15.8
					C365.9,250.1,358.8,257.2,350.1,257.2z"/>
			</g>
		</g>
		<g>
			<g>
				<path d="M156.6,243.6c67.3,0,121.8-54.5,121.8-121.8S223.9,0,156.6,0S34.8,54.5,34.8,121.8C34.9,189,89.4,243.6,156.6,243.6z
					 M85.1,128.2c0-2.3,1.9-4.2,4.2-4.2h11.6c0-2.6,0-5.1,0-7.7H89.3c-2.3,0-4.2-1.9-4.2-4.2v-9.4c0-2.3,1.9-4.2,4.2-4.2H104
					l0.5-1.5c4-12.6,10.8-23.3,21.3-31.5c8.3-6.5,18-10,28.3-11.7c14.7-2.4,28.9-0.3,42.7,5c0.9,0.3,1.8,0.8,2.6,1.2
					c3.3,2,4.2,4.4,2.7,7.9c-1.5,3.7-3.1,7.5-4.8,11.1c-1.5,3.2-3.5,4.2-6.8,3.4c-4.7-1.1-9.2-2.5-13.9-3.4
					c-9.8-2-19.6-2.1-29.2,1.7c-8.2,3.3-13.2,9.5-16.7,17.3c0,0.1,0,0.2,0,0.3h28.6c2.3,0,4.2,1.9,4.2,4.2v9.4
					c0,2.3-1.9,4.2-4.2,4.2h-32.7c0,2.5,0,5,0,7.7h32.7c2.3,0,4.2,1.9,4.2,4.2v9.4c0,2.3-1.9,4.2-4.2,4.2h-29.9
					c3.6,10.3,9.5,18.3,20.5,21.7c8.8,2.8,17.7,2.6,26.6,0.8c4.6-1,9.1-2.4,13.7-3.4c3.6-0.8,5.6,0.2,7.1,3.5
					c1.7,3.7,3.3,7.5,4.8,11.3c1.4,3.4,0.5,6.2-3.1,7.8c-3.7,1.7-7.5,3-11.4,4.1c-14.8,4.1-29.7,4.2-44.4-0.5
					c-17.8-5.8-29.7-17.9-36.7-35c-1.4-3.3-2.3-6.8-3.3-10.2h-14c-2.3,0-4.2-1.9-4.2-4.2v-9.3H85.1z"/>
			</g>
		</g>
	</g>
</g>
<g>
</g>
<g>
</g>
<g>
</g>
<g>
</g>
<g>
</g>
<g>
</g>
<g>
</g>
<g>
</g>
<g>
</g>
<g>
</g>
<g>
</g>
<g>
</g>
<g>
</g>
<g>
</g>
<g>
</g>
</svg>
